<?xml version="1.0" encoding="utf-8"?>
<!-- Generated by IcoMoon.io -->
<!DOCTYPE svg PUBLIC "-//W3C//DTD SVG 1.1//EN" "http://www.w3.org/Graphics/SVG/1.1/DTD/svg11.dtd">
<svg version="1.1" xmlns="http://www.w3.org/2000/svg" xmlns:xlink="http://www.w3.org/1999/xlink" width="22" height="20" viewBox="0 0 22 20">
<path fill="#000000" d="M20.78 2.958l-1.821 7.25c0 0.087-0.017 0.169-0.049 0.243-0.064 0.15-0.183 0.27-0.332 0.333-0.075 0.032-0.157 0.049-0.244 0.049h-11.875l0.5 2.5h10.75c0.346 0 0.625 0.279 0.625 0.625s-0.279 0.625-0.625 0.625h-11.25c-0.346 0-0.625-0.279-0.625-0.625l-2.375-11.875h-2c-0.345 0-0.625-0.28-0.625-0.625s0.28-0.625 0.625-0.625h2.5c0.346 0 0.625 0.28 0.625 0.625l0.125 0.625h15.5c0.346 0 0.625 0.28 0.625 0.625 0 0.089-0.020 0.173-0.054 0.25zM6.208 9.583h2.125v-6.25h-3.375l1.25 6.25zM12.083 3.333h-3.125v6.25h3.125v-6.25zM15.833 3.333h-3.125v6.25h3.125v-6.25zM16.458 3.333v6.25h1.408l1.583-6.25h-2.991zM7.708 15.833c1.036 0 1.875 0.84 1.875 1.875s-0.839 1.875-1.875 1.875-1.875-0.84-1.875-1.875 0.839-1.875 1.875-1.875zM7.708 18.333c0.346 0 0.625-0.279 0.625-0.625s-0.279-0.625-0.625-0.625-0.625 0.279-0.625 0.625 0.279 0.625 0.625 0.625zM16.458 15.833c1.036 0 1.875 0.84 1.875 1.875s-0.839 1.875-1.875 1.875-1.875-0.84-1.875-1.875 0.839-1.875 1.875-1.875zM16.458 18.333c0.346 0 0.625-0.279 0.625-0.625s-0.279-0.625-0.625-0.625-0.625 0.279-0.625 0.625 0.279 0.625 0.625 0.625z"></path>
</svg>
