<?xml version="1.0" encoding="utf-8"?>
<!-- Generated by IcoMoon.io -->
<!DOCTYPE svg PUBLIC "-//W3C//DTD SVG 1.1//EN" "http://www.w3.org/Graphics/SVG/1.1/DTD/svg11.dtd">
<svg version="1.1" xmlns="http://www.w3.org/2000/svg" xmlns:xlink="http://www.w3.org/1999/xlink" width="20" height="20" viewBox="0 0 20 20">
<path fill="#000000" d="M16.713 16.172v-7.547h-1.572q0.233 0.734 0.233 1.526 0 1.467-0.745 2.708t-2.026 1.962-2.795 0.722q-2.294 0-3.925-1.578t-1.63-3.814q0-0.792 0.233-1.526h-1.642v7.547q0 0.303 0.204 0.507t0.507 0.204h12.45q0.291 0 0.501-0.204t0.21-0.507zM13.406 9.965q0-1.444-1.054-2.463t-2.545-1.019q-1.479 0-2.533 1.019t-1.054 2.463 1.054 2.463 2.533 1.019q1.491 0 2.545-1.019t1.054-2.463zM16.713 5.773v-1.922q0-0.326-0.233-0.565t-0.571-0.239h-2.026q-0.338 0-0.571 0.239t-0.233 0.565v1.922q0 0.338 0.233 0.571t0.571 0.233h2.026q0.338 0 0.571-0.233t0.233-0.571zM18.74 3.35v13.3q0 0.943-0.675 1.619t-1.619 0.675h-13.3q-0.943 0-1.619-0.675t-0.675-1.619v-13.3q0-0.943 0.675-1.619t1.619-0.675h13.3q0.943 0 1.619 0.675t0.675 1.619z"></path>
</svg>
