<?xml version="1.0" encoding="utf-8"?>
<!-- Generated by IcoMoon.io -->
<!DOCTYPE svg PUBLIC "-//W3C//DTD SVG 1.1//EN" "http://www.w3.org/Graphics/SVG/1.1/DTD/svg11.dtd">
<svg version="1.1" xmlns="http://www.w3.org/2000/svg" xmlns:xlink="http://www.w3.org/1999/xlink" width="32" height="32" viewBox="0 0 32 32">
<path fill="#000000" d="M19.26 22.653c-0.059 0-0.115-0.019-0.164-0.055-0.169-0.128-0.179-0.426-0.175-0.773v-0.045c0.002-0.187 0.009-0.429 0.015-0.706 0.023-0.835 0.083-3.054-0.172-3.271-0.164-0.087-1.357-0.113-1.696-0.090-1.461 0.102-3.447 0.274-5.548 0.456-2.109 0.183-4.29 0.372-5.946 0.489-2.873 0.203-2.94 0.107-3.024-0.012-0.137-0.196-0.53-3.949-0.161-4.829 0.070-0.165 0.17-0.259 0.298-0.28 0.037-0.006 0.078-0.009 0.119-0.005 5.001 0.316 10.078 0.541 15.091 0.668 0.167 0.004 0.412 0.021 0.637 0.044 0.043 0.005 0.085-0.009 0.119-0.035 0.033-0.028 0.053-0.069 0.057-0.113 0.054-0.704 0.042-1.426 0.030-2.124l-0.006-0.378c-0.001-0.095 0.031-0.612 0.068-1.084 0.081-1.039 0.104-1.053 0.197-1.109l0.087-0.052 0.094 0.049c1.947 1.067 8.73 5.003 10.386 6.315 0.124 0.098 0.188 0.203 0.195 0.32 0.006 0.116-0.047 0.228-0.157 0.337-0.126 0.125-0.234 0.212-0.35 0.306-0.059 0.047-0.122 0.097-0.191 0.157-0.567 0.481-2.957 1.953-5.003 3.17-2.009 1.194-4.341 2.529-4.714 2.641-0.029 0.009-0.059 0.013-0.087 0.013z"></path>
</svg>
