<?xml version="1.0" encoding="utf-8"?>
<!-- Generated by IcoMoon.io -->
<!DOCTYPE svg PUBLIC "-//W3C//DTD SVG 1.1//EN" "http://www.w3.org/Graphics/SVG/1.1/DTD/svg11.dtd">
<svg version="1.1" xmlns="http://www.w3.org/2000/svg" xmlns:xlink="http://www.w3.org/1999/xlink" width="32" height="32" viewBox="0 0 32 32">
<path fill="#000000" d="M12.739 9.347c0.059 0 0.116 0.019 0.164 0.055 0.169 0.128 0.18 0.426 0.175 0.773l-0.001 0.045c-0.001 0.186-0.007 0.429-0.015 0.706-0.023 0.835-0.083 3.055 0.172 3.271 0.163 0.087 1.357 0.113 1.695 0.089 1.462-0.102 3.447-0.274 5.549-0.457 2.108-0.183 4.29-0.371 5.945-0.489 2.873-0.203 2.94-0.107 3.025 0.013 0.135 0.195 0.53 3.948 0.159 4.828-0.069 0.165-0.169 0.259-0.298 0.28-0.038 0.006-0.078 0.009-0.118 0.005-5.001-0.316-10.078-0.541-15.092-0.668-0.167-0.004-0.412-0.021-0.637-0.044-0.043-0.004-0.085 0.009-0.118 0.035-0.034 0.028-0.054 0.069-0.058 0.113-0.055 0.704-0.042 1.426-0.030 2.124l0.006 0.378c0.001 0.096-0.032 0.612-0.068 1.084-0.081 1.039-0.103 1.053-0.196 1.109l-0.088 0.052-0.093-0.049c-1.946-1.067-8.731-5.003-10.386-6.314-0.124-0.098-0.188-0.203-0.194-0.321-0.007-0.115 0.046-0.229 0.156-0.337 0.126-0.125 0.235-0.212 0.35-0.306 0.059-0.047 0.122-0.098 0.191-0.157 0.568-0.482 2.957-1.954 5.003-3.17 2.009-1.194 4.341-2.53 4.713-2.641 0.030-0.008 0.059-0.012 0.087-0.012z"></path>
</svg>
