<?xml version="1.0" encoding="utf-8"?>
<!-- Generated by IcoMoon.io -->
<!DOCTYPE svg PUBLIC "-//W3C//DTD SVG 1.1//EN" "http://www.w3.org/Graphics/SVG/1.1/DTD/svg11.dtd">
<svg version="1.1" xmlns="http://www.w3.org/2000/svg" xmlns:xlink="http://www.w3.org/1999/xlink" width="25" height="20" viewBox="0 0 25 20">
<path fill="#000000" d="M3.971 9.737c-0.237 0.020-0.475 0.033-0.711 0.063-0.053 0.007-0.115 0.060-0.146 0.109-0.389 0.621-0.858 1.168-1.482 1.563-0.169 0.107-0.36 0.183-0.55 0.248-0.184 0.063-0.453-0.074-0.589-0.278-0.116-0.174-0.012-0.304 0.085-0.448 0.188-0.281 0.331-0.596 0.54-0.858 0.346-0.433 0.793-0.739 1.344-0.866 0.385-0.088 0.499-0.433 0.676-0.711 0.144-0.227 0.263-0.47 0.386-0.71 0.133-0.259 0.258-0.522 0.39-0.782 0.122-0.24 0.254-0.475 0.372-0.717 0.137-0.282 0.258-0.571 0.394-0.854 0.097-0.201 0.216-0.392 0.31-0.595 0.357-0.775 0.704-1.556 1.063-2.33 0.266-0.574 0.547-1.141 0.817-1.713 0.101-0.214 0.188-0.434 0.286-0.649 0.101-0.222 0.269-0.299 0.465-0.222 0.264 0.103 0.376 0.296 0.305 0.522-0.221 0.705-0.469 1.403-0.657 2.116-0.251 0.949-0.467 1.908-0.677 2.868-0.183 0.837-0.338 1.68-0.505 2.52-0.091 0.455-0.417 0.686-0.876 0.569 0.304-1.412 0.608-2.827 0.913-4.242-0.009-0.004-0.017-0.008-0.026-0.012-0.801 1.584-1.602 3.167-2.41 4.765 0.043 0.006 0.115 0.020 0.187 0.027 0.076 0.008 0.161-0.009 0.229 0.017 0.698 0.265 1.332-0.018 1.98-0.214 0.386-0.117 0.774-0.236 1.169-0.308 0.34-0.062 0.69-0.046 1 0.151 0.338 0.215 0.38 0.522 0.234 0.889-0.093 0.234-0.075 0.521-0.070 0.783 0.004 0.223 0.060 0.444 0.093 0.666 0.030 0.006 0.059 0.012 0.089 0.019 0.108-0.139 0.229-0.27 0.322-0.419 0.148-0.235 0.294-0.475 0.408-0.727 0.054-0.12 0.025-0.275 0.047-0.412 0.017-0.102 0.050-0.202 0.084-0.301 0.046-0.135 0.103-0.266 0.148-0.401 0.097-0.297 0.149-0.324 0.441-0.192 0.040-0.479 0.085-0.95 0.118-1.422 0.063-0.884 0.123-1.768 0.176-2.652 0.009-0.155-0.034-0.312-0.039-0.468-0.002-0.077 0.003-0.189 0.051-0.225 0.074-0.055 0.2-0.102 0.282-0.078 0.387 0.114 0.439 0.178 0.438 0.596-0 0.388-0.027 0.777-0.061 1.164-0.080 0.91-0.171 1.819-0.255 2.729-0.018 0.201-0.024 0.404-0.036 0.606 0.341 0.086 0.564-0.086 0.591-0.417 0.082-0.985 0.18-1.969 0.272-2.953 0.060-0.646 0.118-1.292 0.182-1.938 0.023-0.229 0.052-0.458 0.098-0.683 0.044-0.219 0.237-0.377 0.381-0.34 0.269 0.069 0.394 0.27 0.36 0.518-0.104 0.765-0.203 1.53-0.288 2.297-0.088 0.783-0.16 1.568-0.233 2.353-0.027 0.291-0.038 0.583-0.058 0.917 0.168-0.020 0.315-0.036 0.461-0.056 0.653-0.087 1.306-0.177 1.959-0.262 0.154-0.020 0.311-0.042 0.464-0.031 0.258 0.018 0.372 0.182 0.371 0.434-0 0.085 0.058 0.201 0.127 0.249 0.339 0.24 0.602 0.534 0.666 0.952 0.042 0.273-0.016 0.552-0.205 0.765-0.444 0.499-1.004 0.836-1.676 0.802-0.765-0.039-1.473-0.359-1.662-1.277-0.051-0.249 0.042-0.451 0.23-0.616 0.124-0.109 0.244-0.223 0.365-0.334-0.007-0.020-0.014-0.039-0.022-0.059-0.349 0.064-0.699 0.124-1.046 0.2-0.040 0.009-0.083 0.105-0.086 0.162-0.035 0.675-0.073 1.351-0.091 2.026-0.020 0.79-0.044 1.581-0.023 2.37 0.021 0.8 0.094 1.598 0.143 2.397 0.006 0.097 0.012 0.195 0.005 0.292-0.013 0.184-0.184 0.24-0.36 0.217-0.327-0.043-0.322-0.296-0.339-0.499-0.070-0.829-0.129-1.661-0.158-2.492-0.018-0.518 0.036-1.038 0.040-1.558 0.008-0.898 0.002-1.796 0.002-2.739-0.177 0.056-0.36 0.108-0.537 0.176-0.037 0.014-0.068 0.084-0.074 0.132-0.152 1.225-0.305 2.45-0.445 3.676-0.057 0.498-0.107 0.998-0.121 1.498-0.015 0.559 0.004 1.119 0.033 1.678 0.008 0.152 0.11 0.298 0.151 0.452 0.021 0.079 0.023 0.233-0.004 0.243-0.116 0.039-0.245 0.038-0.37 0.048-0.017 0.001-0.036-0.017-0.079-0.039-0.078 0.197-0.161 0.386-0.227 0.581-0.202 0.591-0.619 0.994-1.134 1.312-0.959 0.594-1.99 0.728-3.081 0.481-0.224-0.051-0.449-0.096-0.67-0.155-0.905-0.243-1.588-0.811-2.125-1.544-0.304-0.416-0.528-0.885-0.698-1.388-0.143-0.423-0.275-0.843-0.345-1.281-0.095-0.586-0.012-1.169 0.061-1.749 0.038-0.303 0.086-0.607 0.158-0.903 0.129-0.533 0.373-1.016 0.702-1.453 0.2-0.265 0.388-0.544 0.623-0.774 0.272-0.265 0.59-0.483 0.888-0.722 0.031-0.025 0.063-0.049 0.094-0.073-0.006-0.023-0.012-0.047-0.019-0.071zM2.067 14.706c0.076 0.479 0.13 0.962 0.234 1.435 0.167 0.761 0.513 1.442 1.016 2.039 0.698 0.829 1.626 1.163 2.675 1.235 0.963 0.066 1.834-0.148 2.522-0.868 0.525-0.549 0.804-1.212 0.824-1.975 0.009-0.37 0.007-0.739 0.007-1.109 0-0.243 0.050-0.502-0.016-0.726-0.133-0.458-0.296-0.915-0.507-1.343-0.303-0.615-0.749-1.138-1.188-1.664-0.636-0.762-1.403-1.331-2.33-1.679-0.102-0.039-0.254-0.030-0.353 0.019-0.85 0.418-1.57 0.985-2.086 1.798-0.55 0.868-0.737 1.824-0.8 2.839zM14.209 10.861c0.456-0.027 0.778-0.274 1.053-0.607 0.14-0.169 0.156-0.397-0.009-0.542-0.182-0.16-0.391-0.291-0.596-0.42-0.043-0.027-0.142-0.018-0.185 0.015-0.347 0.265-0.695 0.53-1.027 0.814-0.165 0.141-0.146 0.299 0.005 0.453 0.211 0.214 0.482 0.261 0.76 0.288zM7.663 10.833c0.024-0.434 0.046-0.933 0.085-1.431 0.011-0.142-0.035-0.185-0.157-0.16-0.434 0.091-0.868 0.184-1.3 0.283-0.097 0.022-0.188 0.070-0.263 0.098 0.569 0.421 1.128 0.834 1.635 1.209zM9.806 10.782c-0.704 1.088-0.841 1.032-1.268 1.051 0.305 0.487 0.611 0.976 0.935 1.495 0.111-0.848 0.219-1.673 0.332-2.546z"></path>
<path fill="#000000" d="M23.701 10.19c0.002 0.043 0.004 0.056 0.004 0.070-0.001 0.108 0.042 0.275-0.011 0.314-0.135 0.1-0.309 0.149-0.472 0.207-0.137 0.048-0.28 0.080-0.448 0.126 0.094 0.275 0.189 0.533 0.271 0.796 0.117 0.371 0.19 0.742-0.050 1.1-0.169 0.252-0.396 0.312-0.689 0.233-0.584-0.157-1.016-0.559-1.498-0.885-0.275-0.186-0.568-0.345-0.854-0.515-0.232-0.138-0.387-0.333-0.355-0.61 0.031-0.269 0.21-0.444 0.453-0.556 0.46-0.213 0.953-0.234 1.446-0.255 0.055-0.002 0.11-0 0.194-0-0.6-1.306-0.999-2.655-1.346-4.043-0.071 0.233-0.145 0.465-0.211 0.699-0.138 0.487-0.25 0.982-0.411 1.461-0.228 0.68-0.469 1.358-0.743 2.020-0.209 0.506-0.564 0.927-1.127 1.028-0.659 0.119-1.21-0.22-1.469-0.82-0.383-0.888-0.31-1.769 0.234-2.582 0.195-0.292 0.477-0.467 0.86-0.366 0.224 0.059 0.444 0.328 0.394 0.502-0.033 0.114-0.083 0.197-0.235 0.174-0.167-0.025-0.305 0.060-0.384 0.203-0.227 0.408-0.385 0.835-0.325 1.315 0.021 0.164 0.019 0.334 0.060 0.493 0.135 0.539 0.642 0.46 0.925 0.252 0.364-0.267 0.543-0.664 0.705-1.066 0.215-0.535 0.438-1.068 0.624-1.613 0.167-0.49 0.292-0.994 0.427-1.495 0.18-0.668 0.37-1.333 0.518-2.008 0.071-0.321 0.040-0.663 0.084-0.992 0.016-0.119 0.088-0.272 0.182-0.328 0.123-0.073 0.269-0.021 0.393 0.099 0.234 0.227 0.238 0.322 0.181 0.64-0.061 0.339-0.048 0.693-0.059 1.041-0.019 0.663 0.128 1.302 0.302 1.935 0.188 0.685 0.369 1.374 0.594 2.047 0.149 0.447 0.363 0.872 0.56 1.301 0.023 0.050 0.119 0.099 0.177 0.094 0.261-0.022 0.52-0.074 0.781-0.091 0.102-0.007 0.208 0.049 0.318 0.078zM20.418 11.2c0.145 0.12 0.281 0.238 0.423 0.349 0.362 0.285 0.722 0.572 1.092 0.847 0.128 0.095 0.305 0.204 0.438 0.080 0.081-0.076 0.109-0.28 0.073-0.399-0.109-0.356-0.257-0.701-0.401-1.045-0.020-0.048-0.102-0.095-0.157-0.098-0.236-0.010-0.476-0.028-0.708 0.005-0.258 0.037-0.552 0.001-0.759 0.261z"></path>
<path fill="#000000" d="M25.184 16.383c-0.314 0.065-0.498-0.039-0.585-0.334-0.060-0.204 0.005-0.366 0.219-0.363 0.138 0.002 0.321 0.053 0.399 0.15 0.073 0.091 0.044 0.271 0.043 0.412-0 0.047-0.052 0.094-0.077 0.135z"></path>
</svg>
