<?xml version="1.0" encoding="utf-8"?>
<!-- Generated by IcoMoon.io -->
<!DOCTYPE svg PUBLIC "-//W3C//DTD SVG 1.1//EN" "http://www.w3.org/Graphics/SVG/1.1/DTD/svg11.dtd">
<svg version="1.1" xmlns="http://www.w3.org/2000/svg" xmlns:xlink="http://www.w3.org/1999/xlink" width="160" height="32" viewBox="0 0 160 32">
<path fill="#000000" d="M8.056 23.722c0.002-0.537 0.456-0.96 0.991-0.923 1.056 0.074 2.776 0.176 4.251 0.176 2.395 0 3.023-0.526 3.023-1.492 0-0.735-0.354-1.159-1.217-1.507l-3.259-1.276c-2.237-0.89-4.554-2.899-4.554-6.919 0-5.643 3.141-8.543 9.737-8.543 2.16 0 4.021 0.357 4.992 0.586 0.421 0.099 0.717 0.474 0.715 0.907l-0.018 4.272c-0.002 0.562-0.5 0.992-1.057 0.914-1.040-0.146-2.62-0.34-3.651-0.34-2.473 0-2.866 0.851-2.866 1.74 0 0.541 0.353 0.928 1.060 1.237l3.337 1.391c3.102 1.276 4.633 3.441 4.633 6.958 0 5.45-2.592 8.775-9.306 8.775-2.806 0-5.007-0.366-6.091-0.591-0.431-0.089-0.738-0.47-0.736-0.911l0.015-4.456z"></path>
<path fill="#000000" d="M44.536 3.781c0.512 0 0.927 0.415 0.927 0.927v15.566c0 6.655-3.302 9.408-8.741 9.408h-0.777c-5.439 0-8.741-2.754-8.741-9.408v-15.566c0-0.512 0.415-0.927 0.927-0.927h5.915c0.512 0 0.928 0.415 0.928 0.927v16.866c0 1.262 0.544 1.836 1.36 1.836 0.854 0 1.36-0.574 1.36-1.836v-16.866c0-0.512 0.415-0.927 0.927-0.927h5.915z"></path>
<path fill="#000000" d="M49.746 3.814h12.587c0.512 0 0.927 0.415 0.927 0.927v4.418c0 0.512-0.415 0.927-0.927 0.927h-4.817c-0.512 0-0.928 0.415-0.928 0.928v1.97c0 0.512 0.415 0.927 0.928 0.927h3.867c0.512 0 0.927 0.415 0.927 0.927v3.883c0 0.512-0.415 0.927-0.927 0.927h-3.867c-0.512 0-0.928 0.415-0.928 0.927v7.554c0 0.512-0.415 0.927-0.927 0.927h-5.915c-0.512 0-0.927-0.416-0.927-0.927v-23.389c-0-0.512 0.415-0.927 0.927-0.927z"></path>
<path fill="#000000" d="M67.322 3.801h13.875c0.647 0 1.095 0.646 0.868 1.252l-1.655 4.418c-0.136 0.362-0.482 0.602-0.868 0.602h-4.45c-0.512 0-0.928 0.415-0.928 0.928v1.97c0 0.512 0.415 0.927 0.928 0.927h3.867c0.512 0 0.927 0.415 0.927 0.927v3.883c0 0.512-0.415 0.927-0.927 0.927h-3.867c-0.512 0-0.928 0.415-0.928 0.927v7.554c0 0.512-0.415 0.927-0.927 0.927h-5.915c-0.512 0-0.927-0.415-0.927-0.927v-23.389c0-0.512 0.415-0.927 0.927-0.927z"></path>
<path fill="#000000" d="M92.884 3.172c6.691 0 9.013 4.147 9.013 12.401v1.666c0 8.255-2.322 12.44-9.013 12.44h-0.63c-6.691 0-9.012-4.185-9.012-12.44v-1.666c0-8.254 2.322-12.401 9.012-12.401h0.63zM93.946 12.046c0-1.899-0.512-2.519-1.377-2.519s-1.378 0.62-1.378 2.519v8.642c0 1.899 0.512 2.635 1.378 2.635s1.377-0.736 1.377-2.635v-8.642z"></path>
<path fill="#000000" d="M136.596 3.809h-10.925c-0.396 0-0.749 0.252-0.877 0.627l-1.514 4.418c-0.206 0.602 0.242 1.228 0.877 1.228h0.582c0.591 0 1.031 0.546 0.906 1.123l-3.695 17.103c-0.125 0.579 0.318 1.126 0.909 1.124l6.021-0.018c0.461-0.002 0.852-0.342 0.916-0.798l0.288-2.053c0.064-0.458 0.456-0.798 0.918-0.798h2.552c0.458 0 0.849 0.335 0.917 0.789l0.31 2.071c0.069 0.454 0.458 0.789 0.916 0.79l6.027 0.010c0.592 0.002 1.033-0.544 0.908-1.123l-5.13-23.76c-0.093-0.427-0.47-0.732-0.907-0.732zM131.126 19.539l0.866-8.002c0.017-0.153 0.146-0.27 0.3-0.27h0.002c0.154 0 0.284 0.116 0.3 0.27l0.867 8.002c0.019 0.179-0.121 0.335-0.3 0.335h-1.735c-0.18 0-0.319-0.156-0.3-0.335z"></path>
<path fill="#000000" d="M115.097 29.712c-5.818-0.103-10.397-2.958-10.226-12.348l0.025-1.364c0.173-9.469 4.109-12.931 10.368-12.929 1.669 0 3.856 0.31 5.146 0.52 0.569 0.092 0.915 0.678 0.725 1.222-0.751 2.148-1.229 3.546-1.497 4.336-0.153 0.451-0.623 0.713-1.086 0.604-0.544-0.128-1.248-0.268-1.74-0.277-2.414-0.042-3.828 1.531-3.924 6.752l-0.014 0.818c-0.088 4.793 1.587 5.942 3.883 5.982 0.394 0.006 1.116-0.11 1.767-0.234 0.646-0.124 1.211 0.448 1.081 1.093l-0.978 4.871c-0.066 0.329-0.302 0.601-0.623 0.699-0.468 0.145-1.331 0.285-2.907 0.256z"></path>
<path fill="#000000" d="M152.787 27.099c0 1.453-1.178 2.631-2.631 2.631s-2.631-1.178-2.631-2.631c0-1.454 1.178-2.631 2.631-2.631s2.631 1.177 2.631 2.631z"></path>
</svg>
