<?xml version="1.0" encoding="utf-8"?>
<!-- Generated by IcoMoon.io -->
<!DOCTYPE svg PUBLIC "-//W3C//DTD SVG 1.1//EN" "http://www.w3.org/Graphics/SVG/1.1/DTD/svg11.dtd">
<svg version="1.1" xmlns="http://www.w3.org/2000/svg" xmlns:xlink="http://www.w3.org/1999/xlink" width="17" height="20" viewBox="0 0 17 20">
<path fill="#000000" d="M10.75 13.722v2.257q0 0.717-0.417 0.717-0.246 0-0.481-0.235v-3.219q0.235-0.235 0.481-0.235 0.417 0 0.417 0.717zM14.365 13.733v0.492h-0.963v-0.492q0-0.727 0.481-0.727t0.481 0.727zM4.033 11.401h1.144v-1.005h-3.337v1.005h1.123v6.086h1.070v-6.086zM7.114 17.487h0.952v-5.284h-0.952v4.043q-0.321 0.449-0.61 0.449-0.193 0-0.225-0.225-0.011-0.032-0.011-0.374v-3.893h-0.952v4.182q0 0.524 0.086 0.781 0.128 0.396 0.62 0.396 0.513 0 1.091-0.652v0.578zM11.702 15.904v-2.107q0-0.781-0.096-1.059-0.182-0.599-0.759-0.599-0.535 0-0.995 0.578v-2.321h-0.952v7.091h0.952v-0.513q0.481 0.588 0.995 0.588 0.578 0 0.759-0.588 0.096-0.289 0.096-1.070zM15.317 15.797v-0.139h-0.973q0 0.545-0.021 0.652-0.075 0.385-0.428 0.385-0.492 0-0.492-0.738v-0.931h1.915v-1.102q0-0.845-0.289-1.241-0.417-0.545-1.134-0.545-0.727 0-1.144 0.545-0.299 0.396-0.299 1.241v1.85q0 0.845 0.31 1.241 0.417 0.545 1.155 0.545 0.77 0 1.155-0.567 0.193-0.289 0.225-0.578 0.021-0.096 0.021-0.62zM8.814 6.032v-2.246q0-0.738-0.46-0.738t-0.46 0.738v2.246q0 0.749 0.46 0.749t0.46-0.749zM16.504 14.064q0 2.503-0.278 3.743-0.15 0.631-0.62 1.059t-1.091 0.492q-1.968 0.225-5.936 0.225t-5.936-0.225q-0.62-0.064-1.096-0.492t-0.615-1.059q-0.278-1.198-0.278-3.743 0-2.503 0.278-3.743 0.15-0.631 0.62-1.059t1.102-0.503q1.957-0.214 5.925-0.214t5.936 0.214q0.62 0.075 1.096 0.503t0.615 1.059q0.278 1.198 0.278 3.743zM5.83 0.417h1.091l-1.294 4.268v2.899h-1.070v-2.899q-0.15-0.791-0.652-2.267-0.396-1.102-0.695-2h1.134l0.759 2.813zM9.787 3.978v1.872q0 0.866-0.299 1.262-0.396 0.545-1.134 0.545-0.717 0-1.123-0.545-0.299-0.406-0.299-1.262v-1.872q0-0.856 0.299-1.251 0.406-0.545 1.123-0.545 0.738 0 1.134 0.545 0.299 0.396 0.299 1.251zM13.371 2.246v5.337h-0.973v-0.588q-0.567 0.663-1.102 0.663-0.492 0-0.631-0.396-0.086-0.257-0.086-0.802v-4.214h0.973v3.925q0 0.353 0.011 0.374 0.032 0.235 0.225 0.235 0.289 0 0.61-0.46v-4.075h0.973z"></path>
</svg>
